<svg width="1200" height="630" viewBox="0 0 1200 630" fill="none" xmlns="http://www.w3.org/2000/svg" role="img" aria-label="Givebridge social preview image">
  <defs>
    <linearGradient id="bg" x1="0" y1="0" x2="1200" y2="630" gradientUnits="userSpaceOnUse">
      <stop offset="0" stop-color="#FFF8EF"/>
      <stop offset="0.55" stop-color="#F2EEE7"/>
      <stop offset="1" stop-color="#E9E4DB"/>
    </linearGradient>
    <radialGradient id="accent" cx="0" cy="0" r="1" gradientUnits="userSpaceOnUse" gradientTransform="translate(930 140) rotate(120) scale(340 260)">
      <stop stop-color="#DFFF63" stop-opacity="0.85"/>
      <stop offset="1" stop-color="#DFFF63" stop-opacity="0"/>
    </radialGradient>
  </defs>
  <rect width="1200" height="630" fill="url(#bg)"/>
  <circle cx="1010" cy="120" r="180" fill="url(#accent)"/>
  <circle cx="114" cy="530" r="220" fill="#0B0B0B" opacity="0.04"/>
  <g transform="translate(88 88)">
    <rect width="180" height="180" rx="44" fill="#0B0B0B"/>
    <path d="M40 104C40 79.1472 60.1472 59 85 59H95C119.853 59 140 79.1472 140 104" stroke="#FFF8EF" stroke-width="12" stroke-linecap="round"/>
    <path d="M52 111H128" stroke="#FFF8EF" stroke-width="12" stroke-linecap="round"/>
    <path d="M66 111V132" stroke="#FFF8EF" stroke-width="12" stroke-linecap="round"/>
    <path d="M114 111V132" stroke="#FFF8EF" stroke-width="12" stroke-linecap="round"/>
    <circle cx="90" cy="108" r="12" fill="#DFFF63"/>
    <circle cx="90" cy="108" r="5" fill="#0B0B0B"/>
  </g>
  <text x="304" y="180" fill="#0B0B0B" font-family="Inter, Helvetica, Arial, sans-serif" font-weight="700" font-size="92" letter-spacing="2.2">
    GIVEBRIDGE
  </text>
  <text x="304" y="248" fill="#6B6B6B" font-family="Inter, Helvetica, Arial, sans-serif" font-weight="500" font-size="26" letter-spacing="0.5">
    Fund urgent care for children in treatment.
  </text>
  <text x="304" y="300" fill="#0B0B0B" font-family="Inter, Helvetica, Arial, sans-serif" font-weight="500" font-size="32">
    Compassionate fundraising, built for families under pressure.
  </text>
  <g transform="translate(304 382)">
    <rect width="252" height="120" rx="28" fill="#FFFFFF" stroke="#0B0B0B" stroke-opacity="0.08"/>
    <text x="28" y="44" fill="#0B0B0B" font-family="Inter, Helvetica, Arial, sans-serif" font-weight="700" font-size="24" letter-spacing="1">
      SUPPORT CHILDREN
    </text>
    <text x="28" y="74" fill="#6B6B6B" font-family="Inter, Helvetica, Arial, sans-serif" font-weight="500" font-size="18">
      Treatment. Diagnosis. Recovery.
    </text>
  </g>
  <g transform="translate(580 382)">
    <rect width="252" height="120" rx="28" fill="#0B0B0B"/>
    <text x="28" y="44" fill="#DFFF63" font-family="Inter, Helvetica, Arial, sans-serif" font-weight="700" font-size="24" letter-spacing="1">
      SELF-HOSTED
    </text>
    <text x="28" y="74" fill="#FFF8EF" font-family="Inter, Helvetica, Arial, sans-serif" font-weight="500" font-size="18">
      Local assets. Clean paths.
    </text>
  </g>
</svg>
